<svg width="752" height="412" viewBox="0 0 752 412" fill="none" xmlns="http://www.w3.org/2000/svg">
<rect width="751.305" height="411.38" fill="black" fill-opacity="0"/>
<rect width="751.305" height="411.38" fill="black" fill-opacity="0"/>
<rect width="362.734" height="411.38" fill="black" fill-opacity="0"/>
<path d="M181.145 411.38L33.011 370.257L0 0H362.734L329.688 370.199L181.145 411.38Z" fill="#264DE4"/>
<path d="M301.397 346.626L329.637 30.274H181.367V379.903L301.397 346.626Z" fill="#2965F1"/>
<path d="M75.677 167.597L79.747 213.007H181.367V167.597H75.677Z" fill="#EBEBEB"/>
<path d="M67.499 75.685L71.627 121.096H181.367V75.685H181.21H67.499Z" fill="#EBEBEB"/>
<path d="M181.367 285.533L181.168 285.586L130.594 271.93L127.361 235.713H102.786H81.776L88.138 307.014L181.158 332.837L181.367 332.779V285.533Z" fill="#EBEBEB"/>
<path d="M286.766 167.597L294.964 75.685H181.21V121.096H245.198L241.066 167.597H181.21V213.007H237.128L231.857 271.901L181.21 285.571V332.815L274.304 307.014L274.987 299.342L285.658 179.791L286.766 167.597Z" fill="white"/>
<rect width="362.734" height="411.38" fill="black" fill-opacity="0" transform="translate(388.571)"/>
<path d="M751.305 0L718.259 370.199L569.716 411.38L421.582 370.257L388.571 0H751.305Z" fill="#E44D26"/>
<path d="M569.938 379.903L689.968 346.626L718.208 30.274H569.938V379.903Z" fill="#F16529"/>
<path d="M505.698 121.096H569.938V75.685H569.781H456.07L457.157 87.868L468.318 213.007H569.938V167.597H509.848L505.698 121.096Z" fill="#EBEBEB"/>
<path d="M515.932 235.713H491.357H470.347L476.709 307.014L569.729 332.837L569.938 332.779V285.533L569.739 285.586L519.165 271.93L515.932 235.713Z" fill="#EBEBEB"/>
<path d="M569.781 213.007H625.699L620.428 271.901L569.781 285.571V332.815L662.875 307.014L663.558 299.342L674.229 179.791L675.337 167.597H663.1H569.781V213.007Z" fill="white"/>
<path d="M569.781 120.985V121.096H679.323H679.469L680.38 110.889L682.449 87.868L683.535 75.685H569.781V103.889V120.985Z" fill="white"/>
</svg>