<svg width="1010" height="751" viewBox="0 0 1010 751" fill="none" xmlns="http://www.w3.org/2000/svg">
<path d="M557.4 280.55C571.016 280.55 584.326 284.588 595.646 292.152C606.967 299.717 615.791 310.469 621.001 323.048C626.211 335.628 627.574 349.47 624.917 362.824C622.26 376.178 615.702 388.444 606.074 398.071C596.445 407.698 584.178 414.253 570.824 416.908C557.47 419.564 543.628 418.199 531.049 412.987C518.47 407.775 507.72 398.95 500.157 387.628C492.594 376.306 488.558 362.996 488.56 349.38C488.563 331.124 495.817 313.617 508.726 300.709C521.636 287.801 539.144 280.55 557.4 280.55ZM557.4 263.55C540.422 263.55 523.825 268.585 509.709 278.017C495.592 287.45 484.59 300.857 478.093 316.543C471.597 332.229 469.897 349.489 473.21 366.14C476.523 382.792 484.7 398.087 496.705 410.092C508.711 422.096 524.008 430.271 540.66 433.582C557.312 436.893 574.571 435.192 590.256 428.693C605.941 422.194 619.347 411.191 628.778 397.073C638.209 382.955 643.242 366.358 643.24 349.38C643.214 326.623 634.161 304.806 618.068 288.715C601.976 272.624 580.157 263.574 557.4 263.55Z" fill="#3F3D56"/>
<path d="M564.81 243.47H544.69V264.65H564.81V243.47Z" fill="#3F3D56"/>
<path d="M617.943 262.424L600.697 252.061L589.789 270.216L607.035 280.579L617.943 262.424Z" fill="#3F3D56"/>
<path d="M653.311 304.342L643.557 286.744L625.033 297.013L634.787 314.61L653.311 304.342Z" fill="#3F3D56"/>
<path d="M643.293 411.439L653.955 394.376L635.993 383.152L625.331 400.215L643.293 411.439Z" fill="#3F3D56"/>
<path d="M480.019 314.603L489.774 297.006L471.249 286.738L461.495 304.335L480.019 314.603Z" fill="#3F3D56"/>
<path d="M489.477 400.207L478.815 383.145L460.854 394.368L471.516 411.431L489.477 400.207Z" fill="#3F3D56"/>
<path d="M507.761 280.577L525.007 270.215L514.099 252.06L496.852 262.422L507.761 280.577Z" fill="#3F3D56"/>
<path d="M564.81 434.11H544.69V455.29H564.81V434.11Z" fill="#3F3D56"/>
<path d="M607.038 418.186L589.791 428.549L600.7 446.704L617.946 436.341L607.038 418.186Z" fill="#3F3D56"/>
<path d="M496.855 436.343L514.101 446.705L525.01 428.55L507.764 418.188L496.855 436.343Z" fill="#3F3D56"/>
<path d="M473.74 340.91H449.38V358.91H473.74V340.91Z" fill="#3F3D56"/>
<path d="M641.06 358.91H665.42V340.91H641.06V358.91Z" fill="#3F3D56"/>
<path d="M717.32 156.64C730.936 156.64 744.246 160.678 755.567 168.242C766.887 175.807 775.711 186.559 780.921 199.138C786.131 211.718 787.494 225.56 784.837 238.914C782.18 252.268 775.622 264.534 765.994 274.161C756.365 283.788 744.098 290.343 730.744 292.998C717.39 295.654 703.548 294.289 690.969 289.077C678.39 283.865 667.64 275.04 660.077 263.718C652.514 252.396 648.478 239.086 648.48 225.47C648.483 207.214 655.737 189.707 668.646 176.799C681.556 163.891 699.064 156.64 717.32 156.64V156.64ZM717.32 139.64C700.342 139.64 683.745 144.675 669.629 154.107C655.512 163.54 644.51 176.947 638.013 192.633C631.517 208.319 629.817 225.579 633.13 242.23C636.443 258.882 644.62 274.177 656.625 286.182C668.631 298.186 683.928 306.361 700.58 309.672C717.232 312.983 734.491 311.282 750.177 304.783C765.862 298.284 779.267 287.28 788.698 273.163C798.129 259.045 803.162 242.448 803.16 225.47C803.134 202.713 794.081 180.896 777.988 164.805C761.896 148.714 740.077 139.664 717.32 139.64V139.64Z" fill="#3F3D56"/>
<path d="M724.73 119.57H704.61V140.75H724.73V119.57Z" fill="#3F3D56"/>
<path d="M777.87 138.507L760.624 128.145L749.715 146.299L766.961 156.662L777.87 138.507Z" fill="#3F3D56"/>
<path d="M813.236 180.428L803.482 162.831L784.957 173.099L794.712 190.696L813.236 180.428Z" fill="#3F3D56"/>
<path d="M803.21 287.531L813.872 270.468L795.91 259.244L785.248 276.307L803.21 287.531Z" fill="#3F3D56"/>
<path d="M639.933 190.705L649.687 173.108L631.163 162.84L621.408 180.437L639.933 190.705Z" fill="#3F3D56"/>
<path d="M649.394 276.305L638.732 259.242L620.77 270.466L631.432 287.529L649.394 276.305Z" fill="#3F3D56"/>
<path d="M667.681 156.664L684.927 146.301L674.019 128.146L656.772 138.509L667.681 156.664Z" fill="#3F3D56"/>
<path d="M724.73 310.2H704.61V331.38H724.73V310.2Z" fill="#3F3D56"/>
<path d="M766.957 294.28L749.711 304.642L760.62 322.797L777.866 312.435L766.957 294.28Z" fill="#3F3D56"/>
<path d="M656.769 312.429L674.015 322.792L684.923 304.637L667.677 294.274L656.769 312.429Z" fill="#3F3D56"/>
<path d="M633.65 217H609.29V235H633.65V217Z" fill="#3F3D56"/>
<path d="M800.99 235H825.35V217H800.99V235Z" fill="#3F3D56"/>
<path d="M397.44 151.34C398.25 151.34 399.06 151.34 399.87 151.34C417.913 151.955 434.993 159.634 447.428 172.722C459.864 185.81 466.661 203.259 466.354 221.31C466.047 239.361 458.661 256.569 445.788 269.227C432.914 281.885 415.584 288.978 397.53 288.98C396.72 288.98 395.91 288.98 395.09 288.98C377.046 288.365 359.966 280.685 347.53 267.596C335.094 254.507 328.298 237.057 328.606 219.005C328.915 200.953 336.302 183.745 349.178 171.088C362.053 158.431 379.385 151.339 397.44 151.34V151.34ZM397.44 134.34C374.927 134.337 353.313 143.179 337.257 158.961C321.201 174.742 311.988 196.2 311.602 218.71C311.216 241.22 319.69 262.98 335.196 279.303C350.702 295.625 372 305.202 394.5 305.97C395.5 305.97 396.5 306.02 397.5 306.02C420.012 306.02 441.624 297.176 457.678 281.394C473.732 265.612 482.944 244.154 483.328 221.645C483.712 199.136 475.239 177.377 459.732 161.056C444.226 144.735 422.929 135.158 400.43 134.39C399.43 134.39 398.43 134.34 397.43 134.34H397.44Z" fill="#3F3D56"/>
<path d="M408.552 114.608L388.444 113.909L387.709 135.076L407.816 135.775L408.552 114.608Z" fill="#3F3D56"/>
<path d="M460.988 135.38L444.112 124.425L432.579 142.19L449.455 153.145L460.988 135.38Z" fill="#3F3D56"/>
<path d="M494.885 178.499L485.748 160.574L466.878 170.193L476.015 188.118L494.885 178.499Z" fill="#3F3D56"/>
<path d="M481.167 285.156L492.415 268.474L474.854 256.633L463.606 273.316L481.167 285.156Z" fill="#3F3D56"/>
<path d="M321.338 182.73L331.698 165.482L313.541 154.576L303.181 171.824L321.338 182.73Z" fill="#3F3D56"/>
<path d="M326.415 270.27L316.355 252.766L297.928 263.356L307.988 280.86L326.415 270.27Z" fill="#3F3D56"/>
<path d="M350.269 149.672L367.864 139.915L357.593 121.392L339.997 131.15L350.269 149.672Z" fill="#3F3D56"/>
<path d="M401.94 305.113L381.833 304.415L381.097 325.582L401.205 326.28L401.94 305.113Z" fill="#3F3D56"/>
<path d="M444.706 290.681L427.11 300.439L437.381 318.962L454.977 309.204L444.706 290.681Z" fill="#3F3D56"/>
<path d="M333.972 304.978L350.848 315.933L362.38 298.168L345.504 287.213L333.972 304.978Z" fill="#3F3D56"/>
<path d="M314.16 208.815L289.815 207.969L289.19 225.958L313.535 226.804L314.16 208.815Z" fill="#3F3D56"/>
<path d="M480.777 232.587L505.122 233.433L505.747 215.444L481.402 214.598L480.777 232.587Z" fill="#3F3D56"/>
<path opacity="0.1" d="M243.77 402.33C242.948 403.85 242.522 405.552 242.53 407.28C243.28 403.58 248.37 401.53 248.7 397.87C248.85 396.18 248.54 396.26 247.5 397.15C245.92 398.52 245.23 400.88 243.77 402.33Z" fill="black"/>
<path opacity="0.1" d="M259.28 413.57C258.205 414.478 257.402 415.665 256.96 417C256.095 418.88 255.928 421.008 256.49 423C257.24 422.65 257.49 421.73 257.72 420.93C258.088 419.684 258.623 418.493 259.31 417.39C259.91 416.39 262.68 414.16 262.67 413.11C262.64 411.5 260.02 413 259.28 413.57Z" fill="black"/>
</svg>
